<?xml version="1.0" encoding="utf-8"?>
<!-- Generator: Adobe Illustrator 19.0.0, SVG Export Plug-In . SVG Version: 6.00 Build 0)  -->
<svg version="1.1" id="Layer_1" xmlns="http://www.w3.org/2000/svg" xmlns:xlink="http://www.w3.org/1999/xlink" x="0px" y="0px"
	 viewBox="0 0 96 96" style="enable-background:new 0 0 96 96;" xml:space="preserve">
<style type="text/css">
	.st0{fill:#333333;}
</style>
<g id="XMLID_2_">
	<path id="XMLID_9_" class="st0" d="M71.4,30.7c0.6,0.6,1.2,1.5,1.6,2.5c0.4,1.1,0.7,2.1,0.7,2.9v38.6c0,0.9-0.3,1.7-0.9,2.3
		S71.4,78,70.5,78h-45c-0.9,0-1.7-0.3-2.3-0.9c-0.6-0.6-0.9-1.4-0.9-2.3V21.2c0-0.9,0.3-1.7,0.9-2.3c0.6-0.6,1.4-0.9,2.3-0.9h30
		c0.9,0,1.9,0.2,2.9,0.7c1.1,0.4,1.9,1,2.5,1.6L71.4,30.7z M56.6,22.6v12.6h12.6c-0.2-0.6-0.5-1.1-0.7-1.4L57.9,23.3
		C57.7,23,57.2,22.8,56.6,22.6z M69.4,73.7V39.4H55.5c-0.9,0-1.7-0.3-2.3-0.9c-0.6-0.6-0.9-1.4-0.9-2.3V22.3H26.6v51.4H69.4z
		 M65.1,58.7v10.7H30.9V63l6.4-6.4l4.3,4.3L54.4,48L65.1,58.7z M37.3,52.3c-1.8,0-3.3-0.6-4.6-1.9c-1.3-1.2-1.9-2.8-1.9-4.6
		c0-1.8,0.6-3.3,1.9-4.6c1.3-1.2,2.8-1.9,4.6-1.9s3.3,0.6,4.6,1.9c1.3,1.3,1.9,2.8,1.9,4.6c0,1.8-0.6,3.3-1.9,4.6
		C40.6,51.7,39.1,52.3,37.3,52.3z"/>
</g>
</svg>
